{
  "accessors": [
    {
      "bufferView": 2,
      "componentType": 5126,
      "count": 13402,
      "max": [
        1.1943485736846924,
        2.497441291809082,
        4.644958429120185e-15
      ],
      "min": [
        -1.194348692893982,
        -1.996466040611267,
        -2.8102712631225586
      ],
      "type": "VEC3"
    },
    {
      "bufferView": 2,
      "byteOffset": 160824,
      "componentType": 5126,
      "count": 13402,
      "max": [
        1.0,
        1.0,
        1.0
      ],
      "min": [
        -1.0,
        -1.0,
        -1.0
      ],
      "type": "VEC3"
    },
    {
      "bufferView": 3,
      "componentType": 5126,
      "count": 13402,
      "max": [
        1.0,
        1.0,
        0.9999805092811584,
        1.0
      ],
      "min": [
        -0.9999415874481201,
        -1.0,
        -1.0,
        -1.0
      ],
      "type": "VEC4"
    },
    {
      "bufferView": 1,
      "componentType": 5126,
      "count": 13402,
      "max": [
        0.9982870221138,
        0.9960269927978516
      ],
      "min": [
        0.005756999831646681,
        0.005437000188976526
      ],
      "type": "VEC2"
    },
    {
      "bufferView": 1,
      "byteOffset": 107216,
      "componentType": 5126,
      "count": 13402,
      "max": [
        0.0,
        0.0
      ],
      "min": [
        0.0,
        0.0
      ],
      "type": "VEC2"
    },
    {
      "bufferView": 1,
      "byteOffset": 214432,
      "componentType": 5126,
      "count": 13402,
      "max": [
        0.9982870221138,
        0.9960269927978516
      ],
      "min": [
        0.005756999831646681,
        0.005437000188976526
      ],
      "type": "VEC2"
    },
    {
      "bufferView": 0,
      "componentType": 5125,
      "count": 64980,
      "type": "SCALAR"
    }
  ],
  "asset": {
    "extras": {
      "author": "Fanny Ngo (https://sketchfab.com/mizuko_aki)",
      "license": "CC-BY-4.0 (http://creativecommons.org/licenses/by/4.0/)",
      "source": "https://sketchfab.com/3d-models/space-adventure-9cf9da6809894cae9377ae94b1d4256b",
      "title": "Space Adventure"
    },
    "generator": "Sketchfab-12.68.0",
    "version": "2.0"
  },
  "bufferViews": [
    {
      "buffer": 0,
      "byteLength": 259920,
      "name": "floatBufferViews",
      "target": 34963
    },
    {
      "buffer": 0,
      "byteLength": 321648,
      "byteOffset": 259920,
      "byteStride": 8,
      "name": "floatBufferViews",
      "target": 34962
    },
    {
      "buffer": 0,
      "byteLength": 321648,
      "byteOffset": 581568,
      "byteStride": 12,
      "name": "floatBufferViews",
      "target": 34962
    },
    {
      "buffer": 0,
      "byteLength": 214432,
      "byteOffset": 903216,
      "byteStride": 16,
      "name": "floatBufferViews",
      "target": 34962
    }
  ],
  "buffers": [
    {
      "byteLength": 1117648,
      "uri": "scene.bin"
    }
  ],
  "images": [
    {
      "uri": "textures/M_Spaceship_baseColor.png"
    },
    {
      "uri": "textures/M_Spaceship_normal.png"
    }
  ],
  "materials": [
    {
      "doubleSided": true,
      "name": "M_Spaceship",
      "normalTexture": {
        "index": 1
      },
      "pbrMetallicRoughness": {
        "baseColorTexture": {
          "index": 0
        },
        "metallicFactor": 0.0,
        "roughnessFactor": 0.5
      }
    }
  ],
  "meshes": [
    {
      "name": "Object_0",
      "primitives": [
        {
          "attributes": {
            "NORMAL": 1,
            "POSITION": 0,
            "TANGENT": 2,
            "TEXCOORD_0": 3,
            "TEXCOORD_1": 4,
            "TEXCOORD_2": 5
          },
          "indices": 6,
          "material": 0,
          "mode": 4
        }
      ]
    }
  ],
  "nodes": [
    {
      "children": [
        1
      ],
      "matrix": [
        1.0,
        0.0,
        0.0,
        0.0,
        0.0,
        2.220446049250313e-16,
        -1.0,
        0.0,
        0.0,
        1.0,
        2.220446049250313e-16,
        0.0,
        0.0,
        0.0,
        0.0,
        1.0
      ],
      "name": "Sketchfab_model"
    },
    {
      "children": [
        2
      ],
      "name": "root"
    },
    {
      "children": [
        3
      ],
      "matrix": [
        1.0,
        0.0,
        0.0,
        0.0,
        0.0,
        2.220446049250313e-16,
        1.0,
        0.0,
        0.0,
        -1.0,
        2.220446049250313e-16,
        0.0,
        0.0,
        0.0,
        0.0,
        1.0
      ],
      "name": "GLTF_SceneRootNode"
    },
    {
      "children": [
        4
      ],
      "matrix": [
        0.3809054493904114,
        0.0,
        0.0,
        0.0,
        0.0,
        -6.421585818974714e-08,
        0.38090544939040594,
        0.0,
        0.0,
        -0.38090544939040594,
        -6.421585818974714e-08,
        0.0,
        0.0,
        0.0,
        0.0,
        1.0
      ],
      "name": "space_adventure_3"
    },
    {
      "mesh": 0,
      "name": "Object_4"
    }
  ],
  "samplers": [
    {
      "magFilter": 9729,
      "minFilter": 9987,
      "wrapS": 10497,
      "wrapT": 10497
    }
  ],
  "scene": 0,
  "scenes": [
    {
      "name": "Sketchfab_Scene",
      "nodes": [
        0
      ]
    }
  ],
  "textures": [
    {
      "sampler": 0,
      "source": 0
    },
    {
      "sampler": 0,
      "source": 1
    }
  ]
}
