{
  "accessors": [
    {
      "bufferView": 2,
      "componentType": 5126,
      "count": 12783,
      "max": [
        4.4196882247924805,
        0.9883401393890381,
        3.981415033340454
      ],
      "min": [
        -4.770007133483887,
        -0.9692522287368774,
        -1.0658923387527466
      ],
      "type": "VEC3"
    },
    {
      "bufferView": 2,
      "byteOffset": 153396,
      "componentType": 5126,
      "count": 12783,
      "max": [
        1.0,
        1.0,
        1.0
      ],
      "min": [
        -1.0,
        -0.9999986886978149,
        -1.0
      ],
      "type": "VEC3"
    },
    {
      "bufferView": 1,
      "componentType": 5126,
      "count": 12783,
      "max": [
        0.9959807991981506,
        0.9856252074241638
      ],
      "min": [
        0.005361347924917936,
        0.006832122802734375
      ],
      "type": "VEC2"
    },
    {
      "bufferView": 0,
      "componentType": 5125,
      "count": 18150,
      "type": "SCALAR"
    },
    {
      "bufferView": 2,
      "byteOffset": 306792,
      "componentType": 5126,
      "count": 58,
      "max": [
        5.105996608734131,
        3.3483681678771973,
        4.329055309295654
      ],
      "min": [
        -5.1051025390625,
        -0.059570908546447754,
        -1.2387962341308594
      ],
      "type": "VEC3"
    },
    {
      "bufferView": 2,
      "byteOffset": 307488,
      "componentType": 5126,
      "count": 58,
      "max": [
        1.0,
        1.0,
        1.0
      ],
      "min": [
        -1.0,
        -1.0,
        -1.0
      ],
      "type": "VEC3"
    },
    {
      "bufferView": 3,
      "componentType": 5126,
      "count": 58,
      "max": [
        1.0,
        1.0,
        1.0,
        -1.0
      ],
      "min": [
        -1.0,
        -1.0,
        -1.0,
        -1.0
      ],
      "type": "VEC4"
    },
    {
      "bufferView": 1,
      "byteOffset": 102264,
      "componentType": 5126,
      "count": 58,
      "max": [
        5.572846412658691,
        1.0
      ],
      "min": [
        0.0,
        -1.1161165237426758
      ],
      "type": "VEC2"
    },
    {
      "bufferView": 1,
      "byteOffset": 102728,
      "componentType": 5126,
      "count": 58,
      "max": [
        5.572846412658691,
        1.0
      ],
      "min": [
        0.0,
        -1.1161165237426758
      ],
      "type": "VEC2"
    },
    {
      "bufferView": 1,
      "byteOffset": 103192,
      "componentType": 5126,
      "count": 58,
      "max": [
        5.572846412658691,
        1.0
      ],
      "min": [
        0.0,
        -1.1161165237426758
      ],
      "type": "VEC2"
    },
    {
      "bufferView": 1,
      "byteOffset": 103656,
      "componentType": 5126,
      "count": 58,
      "max": [
        5.572846412658691,
        1.0
      ],
      "min": [
        0.0,
        -1.1161165237426758
      ],
      "type": "VEC2"
    },
    {
      "bufferView": 1,
      "byteOffset": 104120,
      "componentType": 5126,
      "count": 58,
      "max": [
        5.572846412658691,
        1.0
      ],
      "min": [
        0.0,
        -1.1161165237426758
      ],
      "type": "VEC2"
    },
    {
      "bufferView": 0,
      "byteOffset": 72600,
      "componentType": 5125,
      "count": 72,
      "type": "SCALAR"
    },
    {
      "bufferView": 2,
      "byteOffset": 308184,
      "componentType": 5126,
      "count": 1520,
      "max": [
        7.520298957824707,
        7.860360145568848,
        6.641751289367676
      ],
      "min": [
        -7.767184734344482,
        -1.6980408430099487,
        -5.431128025054932
      ],
      "type": "VEC3"
    },
    {
      "bufferView": 2,
      "byteOffset": 326424,
      "componentType": 5126,
      "count": 1520,
      "max": [
        1.0,
        1.0,
        1.0
      ],
      "min": [
        -1.0,
        -1.0,
        -1.0
      ],
      "type": "VEC3"
    },
    {
      "bufferView": 3,
      "byteOffset": 928,
      "componentType": 5126,
      "count": 1520,
      "max": [
        1.0,
        0.9898280501365662,
        1.0,
        1.0
      ],
      "min": [
        -1.0,
        -1.0,
        -1.0,
        -1.0
      ],
      "type": "VEC4"
    },
    {
      "bufferView": 1,
      "byteOffset": 104584,
      "componentType": 5126,
      "count": 1520,
      "max": [
        15.696004867553711,
        1.125
      ],
      "min": [
        -0.15413439273834229,
        -3.679643154144287
      ],
      "type": "VEC2"
    },
    {
      "bufferView": 1,
      "byteOffset": 116744,
      "componentType": 5126,
      "count": 1520,
      "max": [
        15.696004867553711,
        1.125
      ],
      "min": [
        -0.15413439273834229,
        -3.679643154144287
      ],
      "type": "VEC2"
    },
    {
      "bufferView": 1,
      "byteOffset": 128904,
      "componentType": 5126,
      "count": 1520,
      "max": [
        15.696004867553711,
        1.125
      ],
      "min": [
        -0.15413439273834229,
        -3.679643154144287
      ],
      "type": "VEC2"
    },
    {
      "bufferView": 1,
      "byteOffset": 141064,
      "componentType": 5126,
      "count": 1520,
      "max": [
        15.696004867553711,
        1.125
      ],
      "min": [
        -0.15413439273834229,
        -3.679643154144287
      ],
      "type": "VEC2"
    },
    {
      "bufferView": 0,
      "byteOffset": 72888,
      "componentType": 5125,
      "count": 2172,
      "type": "SCALAR"
    },
    {
      "bufferView": 2,
      "byteOffset": 344664,
      "componentType": 5126,
      "count": 36,
      "max": [
        5.19224214553833,
        -0.9784983396530151,
        3.381136894226074
      ],
      "min": [
        -4.470569133758545,
        -1.050971508026123,
        -2.2555031776428223
      ],
      "type": "VEC3"
    },
    {
      "bufferView": 2,
      "byteOffset": 345096,
      "componentType": 5126,
      "count": 36,
      "max": [
        1.0,
        1.0,
        1.0
      ],
      "min": [
        -1.0,
        -1.0,
        -1.0
      ],
      "type": "VEC3"
    },
    {
      "bufferView": 3,
      "byteOffset": 25248,
      "componentType": 5126,
      "count": 36,
      "max": [
        1.0,
        1.6919202039389347e-07,
        1.0,
        -1.0
      ],
      "min": [
        -1.0,
        -1.691920346047482e-07,
        -1.0,
        -1.0
      ],
      "type": "VEC4"
    },
    {
      "bufferView": 1,
      "byteOffset": 153224,
      "componentType": 5126,
      "count": 36,
      "max": [
        3.0,
        1.022499918937683
      ],
      "min": [
        0.0,
        -2.0
      ],
      "type": "VEC2"
    },
    {
      "bufferView": 1,
      "byteOffset": 153512,
      "componentType": 5126,
      "count": 36,
      "max": [
        3.0,
        1.022499918937683
      ],
      "min": [
        0.0,
        -2.0
      ],
      "type": "VEC2"
    },
    {
      "bufferView": 1,
      "byteOffset": 153800,
      "componentType": 5126,
      "count": 36,
      "max": [
        3.0,
        1.022499918937683
      ],
      "min": [
        0.0,
        -2.0
      ],
      "type": "VEC2"
    },
    {
      "bufferView": 1,
      "byteOffset": 154088,
      "componentType": 5126,
      "count": 36,
      "max": [
        3.0,
        1.022499918937683
      ],
      "min": [
        0.0,
        -2.0
      ],
      "type": "VEC2"
    },
    {
      "bufferView": 1,
      "byteOffset": 154376,
      "componentType": 5126,
      "count": 36,
      "max": [
        3.0,
        1.022499918937683
      ],
      "min": [
        0.0,
        -2.0
      ],
      "type": "VEC2"
    },
    {
      "bufferView": 0,
      "byteOffset": 81576,
      "componentType": 5125,
      "count": 36,
      "type": "SCALAR"
    },
    {
      "bufferView": 2,
      "byteOffset": 345528,
      "componentType": 5126,
      "count": 192,
      "max": [
        5.480958461761475,
        3.8199689388275146,
        4.808453559875488
      ],
      "min": [
        -5.564646244049072,
        3.096895456314087,
        -2.1672255992889404
      ],
      "type": "VEC3"
    },
    {
      "bufferView": 2,
      "byteOffset": 347832,
      "componentType": 5126,
      "count": 192,
      "max": [
        0.9807870984077454,
        0.9962155818939209,
        0.9807871580123901
      ],
      "min": [
        -0.9807870984077454,
        -0.9962159395217896,
        -0.9807873964309692
      ],
      "type": "VEC3"
    },
    {
      "bufferView": 1,
      "byteOffset": 154664,
      "componentType": 5126,
      "count": 192,
      "max": [
        0.0,
        1.0
      ],
      "min": [
        0.0,
        1.0
      ],
      "type": "VEC2"
    },
    {
      "bufferView": 0,
      "byteOffset": 81720,
      "componentType": 5125,
      "count": 1152,
      "type": "SCALAR"
    },
    {
      "bufferView": 2,
      "byteOffset": 350136,
      "componentType": 5126,
      "count": 1398,
      "max": [
        5.974688529968262,
        3.9228529930114746,
        5.207281589508057
      ],
      "min": [
        -0.8801963329315186,
        3.1718528270721436,
        -2.979823112487793
      ],
      "type": "VEC3"
    },
    {
      "bufferView": 2,
      "byteOffset": 366912,
      "componentType": 5126,
      "count": 1398,
      "max": [
        1.0,
        1.0,
        1.0
      ],
      "min": [
        -1.0,
        -1.0,
        -1.0
      ],
      "type": "VEC3"
    },
    {
      "bufferView": 1,
      "byteOffset": 156200,
      "componentType": 5126,
      "count": 1398,
      "max": [
        1.9452189207077026,
        1.0
      ],
      "min": [
        0.0,
        0.812250018119812
      ],
      "type": "VEC2"
    },
    {
      "bufferView": 0,
      "byteOffset": 86328,
      "componentType": 5125,
      "count": 1800,
      "type": "SCALAR"
    }
  ],
  "asset": {
    "extras": {
      "author": "m3org (https://sketchfab.com/m3org)",
      "license": "CC-BY-4.0 (http://creativecommons.org/licenses/by/4.0/)",
      "source": "https://sketchfab.com/3d-models/anarchy-arcade-booth-a9ffd4628fc6471fa4ba2b8b99673bde",
      "title": "Anarchy Arcade booth"
    },
    "generator": "Sketchfab-15.30.0",
    "version": "2.0"
  },
  "bufferViews": [
    {
      "buffer": 0,
      "byteLength": 93528,
      "name": "floatBufferViews",
      "target": 34963
    },
    {
      "buffer": 0,
      "byteLength": 167384,
      "byteOffset": 93528,
      "byteStride": 8,
      "name": "floatBufferViews",
      "target": 34962
    },
    {
      "buffer": 0,
      "byteLength": 383688,
      "byteOffset": 260912,
      "byteStride": 12,
      "name": "floatBufferViews",
      "target": 34962
    },
    {
      "buffer": 0,
      "byteLength": 25824,
      "byteOffset": 644600,
      "byteStride": 16,
      "name": "floatBufferViews",
      "target": 34962
    }
  ],
  "buffers": [
    {
      "byteLength": 670424,
      "uri": "scene.bin"
    }
  ],
  "extensionsUsed": [
    "KHR_materials_specular",
    "KHR_materials_emissive_strength"
  ],
  "images": [
    {
      "uri": "textures/slimbake.001_emissive.png"
    },
    {
      "uri": "textures/BrickStandardDirty.001_baseColor.png"
    },
    {
      "uri": "textures/BrickStandardDirty.001_metallicRoughness.png"
    },
    {
      "uri": "textures/BrickStandardDirty.001_normal.png"
    },
    {
      "uri": "textures/Material__90.001_baseColor.png"
    },
    {
      "uri": "textures/Material__90.001_metallicRoughness.png"
    },
    {
      "uri": "textures/Material__90.001_normal.png"
    },
    {
      "uri": "textures/tile.001_baseColor.png"
    },
    {
      "uri": "textures/tile.001_metallicRoughness.png"
    },
    {
      "uri": "textures/tile.001_normal.png"
    }
  ],
  "materials": [
    {
      "emissiveFactor": [
        1.0,
        1.0,
        1.0
      ],
      "emissiveTexture": {
        "index": 0
      },
      "extensions": {
        "KHR_materials_specular": {
          "specularColorFactor": [
            1.0,
            1.0,
            1.0
          ],
          "specularFactor": 1.0
        }
      },
      "name": "slimbake.001",
      "pbrMetallicRoughness": {
        "baseColorFactor": [
          0.0,
          0.0,
          0.0,
          1.0
        ],
        "metallicFactor": 0.314961,
        "roughnessFactor": 0.2
      }
    },
    {
      "extensions": {
        "KHR_materials_specular": {
          "specularColorFactor": [
            1.0,
            1.0,
            1.0
          ],
          "specularFactor": 1.0
        }
      },
      "name": "BrickStandardDirty.001",
      "normalTexture": {
        "index": 3
      },
      "occlusionTexture": {
        "index": 2
      },
      "pbrMetallicRoughness": {
        "baseColorTexture": {
          "index": 1
        },
        "metallicFactor": 0.0,
        "metallicRoughnessTexture": {
          "index": 2
        }
      }
    },
    {
      "extensions": {
        "KHR_materials_specular": {
          "specularColorFactor": [
            1.0,
            1.0,
            1.0
          ],
          "specularFactor": 1.0
        }
      },
      "name": "Material__90.001",
      "normalTexture": {
        "index": 6
      },
      "pbrMetallicRoughness": {
        "baseColorTexture": {
          "index": 4
        },
        "metallicFactor": 0.7,
        "metallicRoughnessTexture": {
          "index": 5
        },
        "roughnessFactor": 0.25
      }
    },
    {
      "extensions": {
        "KHR_materials_specular": {
          "specularColorFactor": [
            1.0,
            1.0,
            1.0
          ],
          "specularFactor": 0.14531594901651435
        }
      },
      "name": "tile.001",
      "normalTexture": {
        "index": 9
      },
      "occlusionTexture": {
        "index": 8
      },
      "pbrMetallicRoughness": {
        "baseColorTexture": {
          "index": 7
        },
        "metallicFactor": 0.0,
        "metallicRoughnessTexture": {
          "index": 8
        },
        "roughnessFactor": 0.535039428029296
      }
    },
    {
      "emissiveFactor": [
        1.0,
        0.0431373,
        0.0431373
      ],
      "extensions": {
        "KHR_materials_specular": {
          "specularColorFactor": [
            1.0,
            1.0,
            1.0
          ],
          "specularFactor": 1.0
        }
      },
      "name": "neon.001",
      "pbrMetallicRoughness": {
        "baseColorFactor": [
          0.0,
          0.0,
          0.0,
          1.0
        ],
        "roughnessFactor": 0.2
      }
    },
    {
      "doubleSided": true,
      "emissiveFactor": [
        1.0,
        1.0,
        1.0
      ],
      "extensions": {
        "KHR_materials_emissive_strength": {
          "emissiveStrength": 1.2
        },
        "KHR_materials_specular": {
          "specularColorFactor": [
            1.0,
            1.0,
            1.0
          ],
          "specularFactor": 1.0
        }
      },
      "name": "Material.001",
      "pbrMetallicRoughness": {
        "baseColorFactor": [
          0.8,
          0.8,
          0.8,
          1.0
        ],
        "metallicFactor": 0.173228,
        "roughnessFactor": 0.5
      }
    }
  ],
  "meshes": [
    {
      "name": "Object_0",
      "primitives": [
        {
          "attributes": {
            "NORMAL": 1,
            "POSITION": 0,
            "TEXCOORD_0": 2
          },
          "indices": 3,
          "material": 0,
          "mode": 4
        }
      ]
    },
    {
      "name": "Object_1",
      "primitives": [
        {
          "attributes": {
            "NORMAL": 5,
            "POSITION": 4,
            "TANGENT": 6,
            "TEXCOORD_0": 7,
            "TEXCOORD_1": 8,
            "TEXCOORD_2": 9,
            "TEXCOORD_3": 10,
            "TEXCOORD_4": 11
          },
          "indices": 12,
          "material": 1,
          "mode": 4
        }
      ]
    },
    {
      "name": "Object_2",
      "primitives": [
        {
          "attributes": {
            "NORMAL": 14,
            "POSITION": 13,
            "TANGENT": 15,
            "TEXCOORD_0": 16,
            "TEXCOORD_1": 17,
            "TEXCOORD_2": 18,
            "TEXCOORD_3": 19
          },
          "indices": 20,
          "material": 2,
          "mode": 4
        }
      ]
    },
    {
      "name": "Object_3",
      "primitives": [
        {
          "attributes": {
            "NORMAL": 22,
            "POSITION": 21,
            "TANGENT": 23,
            "TEXCOORD_0": 24,
            "TEXCOORD_1": 25,
            "TEXCOORD_2": 26,
            "TEXCOORD_3": 27,
            "TEXCOORD_4": 28
          },
          "indices": 29,
          "material": 3,
          "mode": 4
        }
      ]
    },
    {
      "name": "Object_4",
      "primitives": [
        {
          "attributes": {
            "NORMAL": 31,
            "POSITION": 30,
            "TEXCOORD_0": 32
          },
          "indices": 33,
          "material": 4,
          "mode": 4
        }
      ]
    },
    {
      "name": "Object_5",
      "primitives": [
        {
          "attributes": {
            "NORMAL": 35,
            "POSITION": 34,
            "TEXCOORD_0": 36
          },
          "indices": 37,
          "material": 5,
          "mode": 4
        }
      ]
    }
  ],
  "nodes": [
    {
      "children": [
        1
      ],
      "matrix": [
        1.0,
        0.0,
        0.0,
        0.0,
        0.0,
        2.220446049250313e-16,
        -1.0,
        0.0,
        0.0,
        1.0,
        2.220446049250313e-16,
        0.0,
        0.0,
        0.0,
        0.0,
        1.0
      ],
      "name": "Sketchfab_model"
    },
    {
      "children": [
        2
      ],
      "name": "root"
    },
    {
      "children": [
        3
      ],
      "matrix": [
        1.0,
        0.0,
        0.0,
        0.0,
        0.0,
        2.220446049250313e-16,
        1.0,
        0.0,
        0.0,
        -1.0,
        2.220446049250313e-16,
        0.0,
        0.0,
        0.0,
        0.0,
        1.0
      ],
      "name": "GLTF_SceneRootNode"
    },
    {
      "children": [
        4,
        5,
        6,
        7,
        8,
        9
      ],
      "matrix": [
        -1.685873969314855e-07,
        0.0,
        0.9999999999999858,
        0.0,
        0.0,
        1.0,
        0.0,
        0.0,
        -0.9999999999999858,
        0.0,
        -1.685873969314855e-07,
        0.0,
        1.009203553199768,
        1.3728971481323242,
        -1.0819785594940186,
        1.0
      ],
      "name": "aabooth_0"
    },
    {
      "mesh": 0,
      "name": "Object_4"
    },
    {
      "mesh": 1,
      "name": "Object_5"
    },
    {
      "mesh": 2,
      "name": "Object_6"
    },
    {
      "mesh": 3,
      "name": "Object_7"
    },
    {
      "mesh": 4,
      "name": "Object_8"
    },
    {
      "mesh": 5,
      "name": "Object_9"
    }
  ],
  "samplers": [
    {
      "magFilter": 9729,
      "minFilter": 9987,
      "wrapS": 10497,
      "wrapT": 10497
    }
  ],
  "scene": 0,
  "scenes": [
    {
      "name": "Sketchfab_Scene",
      "nodes": [
        0
      ]
    }
  ],
  "textures": [
    {
      "sampler": 0,
      "source": 0
    },
    {
      "sampler": 0,
      "source": 1
    },
    {
      "sampler": 0,
      "source": 2
    },
    {
      "sampler": 0,
      "source": 3
    },
    {
      "sampler": 0,
      "source": 4
    },
    {
      "sampler": 0,
      "source": 5
    },
    {
      "sampler": 0,
      "source": 6
    },
    {
      "sampler": 0,
      "source": 7
    },
    {
      "sampler": 0,
      "source": 8
    },
    {
      "sampler": 0,
      "source": 9
    }
  ]
}
