{
  "accessors": [
    {
      "bufferView": 2,
      "componentType": 5126,
      "count": 18237,
      "max": [
        1010.6917724609375,
        1136.38427734375,
        303.5428466796875
      ],
      "min": [
        -1010.69140625,
        0.0009765625,
        -303.54296875
      ],
      "type": "VEC3"
    },
    {
      "bufferView": 2,
      "byteOffset": 218844,
      "componentType": 5126,
      "count": 18237,
      "max": [
        1.0,
        1.0,
        1.0
      ],
      "min": [
        -1.0,
        -1.0,
        -1.0
      ],
      "type": "VEC3"
    },
    {
      "bufferView": 3,
      "componentType": 5126,
      "count": 18237,
      "max": [
        1.0,
        1.0,
        1.0,
        1.0
      ],
      "min": [
        -1.0,
        -1.0,
        -1.0,
        -1.0
      ],
      "type": "VEC4"
    },
    {
      "bufferView": 1,
      "componentType": 5126,
      "count": 18237,
      "max": [
        1.2641199827194214,
        0.9924610257148743
      ],
      "min": [
        0.001566960010677576,
        0.001470469986088574
      ],
      "type": "VEC2"
    },
    {
      "bufferView": 0,
      "componentType": 5125,
      "count": 22464,
      "type": "SCALAR"
    },
    {
      "bufferView": 2,
      "byteOffset": 437688,
      "componentType": 5126,
      "count": 216,
      "max": [
        16.459199905395508,
        8.229599952697754,
        0.0
      ],
      "min": [
        -16.459199905395508,
        -8.229599952697754,
        -0.22860001027584076
      ],
      "type": "VEC3"
    },
    {
      "bufferView": 2,
      "byteOffset": 440280,
      "componentType": 5126,
      "count": 216,
      "max": [
        1.0,
        1.0,
        1.0
      ],
      "min": [
        -1.0,
        -1.0,
        -1.0
      ],
      "type": "VEC3"
    },
    {
      "bufferView": 3,
      "byteOffset": 291792,
      "componentType": 5126,
      "count": 216,
      "max": [
        1.0,
        1.0,
        0.38267818093299866,
        1.0
      ],
      "min": [
        -0.38273555040359497,
        -0.38270512223243713,
        -0.38267818093299866,
        -1.0
      ],
      "type": "VEC4"
    },
    {
      "bufferView": 1,
      "byteOffset": 145896,
      "componentType": 5126,
      "count": 216,
      "max": [
        2.1449859142303467,
        1.4097506999969482
      ],
      "min": [
        -0.999220609664917,
        -0.24922055006027222
      ],
      "type": "VEC2"
    },
    {
      "bufferView": 0,
      "byteOffset": 89856,
      "componentType": 5125,
      "count": 324,
      "type": "SCALAR"
    }
  ],
  "asset": {
    "extras": {
      "author": "Walt's Digital World (https://sketchfab.com/waltsdigitalworld)",
      "license": "CC-BY-4.0 (http://creativecommons.org/licenses/by/4.0/)",
      "source": "https://sketchfab.com/3d-models/disneys-hollywood-studios-mgm-archway-0f0dd6209a8b428383123e33073be68f",
      "title": "Disney's Hollywood Studios MGM Archway"
    },
    "generator": "Sketchfab-12.67.0",
    "version": "2.0"
  },
  "bufferViews": [
    {
      "buffer": 0,
      "byteLength": 91152,
      "name": "floatBufferViews",
      "target": 34963
    },
    {
      "buffer": 0,
      "byteLength": 147624,
      "byteOffset": 91152,
      "byteStride": 8,
      "name": "floatBufferViews",
      "target": 34962
    },
    {
      "buffer": 0,
      "byteLength": 442872,
      "byteOffset": 238776,
      "byteStride": 12,
      "name": "floatBufferViews",
      "target": 34962
    },
    {
      "buffer": 0,
      "byteLength": 295248,
      "byteOffset": 681648,
      "byteStride": 16,
      "name": "floatBufferViews",
      "target": 34962
    }
  ],
  "buffers": [
    {
      "byteLength": 976896,
      "uri": "scene.bin"
    }
  ],
  "images": [
    {
      "uri": "textures/T_MGM_Arch_baseColor.jpeg"
    },
    {
      "uri": "textures/T_MGM_Arch_metallicRoughness.png"
    },
    {
      "uri": "textures/T_MGM_Arch_normal.png"
    },
    {
      "uri": "textures/M_ConcretePink_baseColor.jpeg"
    },
    {
      "uri": "textures/M_ConcretePink_metallicRoughness.png"
    },
    {
      "uri": "textures/M_ConcretePink_normal.png"
    }
  ],
  "materials": [
    {
      "doubleSided": true,
      "name": "T_MGM_Arch",
      "normalTexture": {
        "index": 2
      },
      "pbrMetallicRoughness": {
        "baseColorTexture": {
          "index": 0
        },
        "metallicRoughnessTexture": {
          "index": 1
        }
      }
    },
    {
      "doubleSided": true,
      "name": "M_ConcretePink",
      "normalTexture": {
        "index": 5
      },
      "pbrMetallicRoughness": {
        "baseColorTexture": {
          "index": 3
        },
        "metallicFactor": 0.0,
        "metallicRoughnessTexture": {
          "index": 4
        }
      }
    }
  ],
  "meshes": [
    {
      "name": "SM_MGM_Arch_T_MGM_Arch_0",
      "primitives": [
        {
          "attributes": {
            "NORMAL": 1,
            "POSITION": 0,
            "TANGENT": 2,
            "TEXCOORD_0": 3
          },
          "indices": 4,
          "material": 0,
          "mode": 4
        }
      ]
    },
    {
      "name": "SM_ConcretePink_M_ConcretePink_0",
      "primitives": [
        {
          "attributes": {
            "NORMAL": 6,
            "POSITION": 5,
            "TANGENT": 7,
            "TEXCOORD_0": 8
          },
          "indices": 9,
          "material": 1,
          "mode": 4
        }
      ]
    }
  ],
  "nodes": [
    {
      "children": [
        1
      ],
      "matrix": [
        1.0,
        0.0,
        0.0,
        0.0,
        0.0,
        2.220446049250313e-16,
        -1.0,
        0.0,
        0.0,
        1.0,
        2.220446049250313e-16,
        0.0,
        0.0,
        0.0,
        0.0,
        1.0
      ],
      "name": "Sketchfab_model"
    },
    {
      "children": [
        2
      ],
      "matrix": [
        1.0,
        0.0,
        0.0,
        0.0,
        0.0,
        0.0,
        1.0,
        0.0,
        0.0,
        -1.0,
        0.0,
        0.0,
        0.0,
        0.0,
        0.0,
        1.0
      ],
      "name": "af44107f8ebd402089a996a36358166f.fbx"
    },
    {
      "children": [
        3,
        5
      ],
      "name": "RootNode"
    },
    {
      "children": [
        4
      ],
      "matrix": [
        1.0,
        0.0,
        0.0,
        0.0,
        0.0,
        0.9999999999999867,
        1.6292067073209113e-07,
        0.0,
        0.0,
        -1.6292067073209113e-07,
        0.9999999999999867,
        0.0,
        0.0,
        0.0,
        0.0,
        1.0
      ],
      "name": "SM_MGM_Arch"
    },
    {
      "mesh": 0,
      "name": "SM_MGM_Arch_T_MGM_Arch_0"
    },
    {
      "children": [
        6
      ],
      "matrix": [
        100.0,
        0.0,
        0.0,
        0.0,
        0.0,
        -1.629206793918314e-05,
        -99.99999999999868,
        0.0,
        0.0,
        99.99999999999868,
        -1.629206793918314e-05,
        0.0,
        0.0,
        0.0,
        0.0,
        1.0
      ],
      "name": "SM_ConcretePink"
    },
    {
      "mesh": 1,
      "name": "SM_ConcretePink_M_ConcretePink_0"
    }
  ],
  "samplers": [
    {
      "magFilter": 9729,
      "minFilter": 9987,
      "wrapS": 10497,
      "wrapT": 10497
    }
  ],
  "scene": 0,
  "scenes": [
    {
      "name": "Sketchfab_Scene",
      "nodes": [
        0
      ]
    }
  ],
  "textures": [
    {
      "sampler": 0,
      "source": 0
    },
    {
      "sampler": 0,
      "source": 1
    },
    {
      "sampler": 0,
      "source": 2
    },
    {
      "sampler": 0,
      "source": 3
    },
    {
      "sampler": 0,
      "source": 4
    },
    {
      "sampler": 0,
      "source": 5
    }
  ]
}
